<svg xmlns="http://www.w3.org/2000/svg" viewBox="0 0 27 27" fill="none">
  <g transform="translate(0, 1.5)">
    <!-- Nimiq Hexagon base -->
    <path d="M26.6991 10.875L21.0741 1.125C20.6691 0.4275 19.9266 0 19.1241 0H7.87414C7.07164 0 6.32914 0.4275 5.92789 1.125L0.302891 10.875C-0.0983594 11.5725 -0.0983594 12.4275 0.302891 13.125L5.92789 22.875C6.32914 23.5725 7.07164 24 7.87414 24H19.1241C19.9266 24 20.6691 23.5725 21.0704 22.875L26.6954 13.125C27.1004 12.4275 27.1004 11.5725 26.6991 10.875Z" fill="url(#faviconGrad)" />
    <!-- Ticket / Voucher cutout representing 'Perks' -->
    <path d="M8.5 9C8.22 9 8 9.22 8 9.5v1.25c.69 0 1.25.56 1.25 1.25S8.69 13.25 8 13.25v1.25c0 .28.22.5.5.5h10c.28 0 .5-.22.5-.5v-1.25c-.69 0-1.25-.56-1.25-1.25S18.31 10.75 19 10.75V9.5c0-.28-.22-.5-.5-.5h-10z" fill="#0D0D0F" />
    <!-- Central gold star inside the ticket representing points/stamps -->
    <path d="M13.5 10.5l.4 1.05 1.1.05-.8.75.25 1.1-.95-.6-.95.6.25-1.1-.8-.75 1.1-.05.4-1.05z" fill="#E9B213" />
  </g>
  <defs>
    <radialGradient id="faviconGrad" cx="0" cy="0" r="1" gradientUnits="userSpaceOnUse" gradientTransform="translate(27 24) rotate(-180) scale(27 24)">
      <stop stop-color="#EC991C"/>
      <stop offset="1" stop-color="#E9B213"/>
    </radialGradient>
  </defs>
</svg>
